# xmcd
# 
# Track frame offsets:
#     150
#     9100
#     29635
#     48940
#     71590
#     94122
#     114592
#     137722
#     155847
#     178070
#     200662
#     226437
#     248072
#     273145
#     294050
#     303480
#     336057
# 
# Disc length: 4795
# 
# Revision: 17
# Processed by: cddbd v1.5.2PL0 Copyright (c) Steve Scherf et al.
# Submitted via: fre:ac v1.0.17
# 
DISCID=eb12b911
DTITLE=Various Artist - EXILE ENTERTAINMENT
DYEAR=2003
DGENRE=JPop
TTITLE0=EXILE - EXILE COME
TTITLE1=EXILE - New Jack Swing
TTITLE2=EXILE - Together
TTITLE3=EXILE - Believe
TTITLE4=EXILE - Time
TTITLE5=EXILE - ki・zu・na
TTITLE6=EXILE - BLUE～云えずにいる～
TTITLE7=EXILE - LET ME LUV U DOWN feat. ZEEBRA&MACCHO(OZROSAURUS)
TTITLE8=EXILE - 砂時計
TTITLE9=EXILE - O'ver
TTITLE10=EXILE - Be Mine feat. 99% Radio Allstars
TTITLE11=EXILE - Unlimited
TTITLE12=EXILE - Eternal...
TTITLE13=EXILE - Choo Choo TRAIN
TTITLE14=EXILE - ROAD-RUNNER
TTITLE15=EXILE - M&A
TTITLE16=あ - @
EXTD=YEAR: 2003
EXTT0=
EXTT1=
EXTT2=
EXTT3=
EXTT4=
EXTT5=
EXTT6=
EXTT7=
EXTT8=
EXTT9=
EXTT10=
EXTT11=
EXTT12=
EXTT13=
EXTT14=
EXTT15=
EXTT16=
PLAYORDER=
